<?xml version="1.0" encoding="UTF-8" standalone="no"?>
<svg
   xmlns:lucid="lucid"
   xmlns:osb="http://www.openswatchbook.org/uri/2009/osb"
   xmlns:dc="http://purl.org/dc/elements/1.1/"
   xmlns:cc="http://creativecommons.org/ns#"
   xmlns:rdf="http://www.w3.org/1999/02/22-rdf-syntax-ns#"
   xmlns:svg="http://www.w3.org/2000/svg"
   xmlns="http://www.w3.org/2000/svg"
   xmlns:xlink="http://www.w3.org/1999/xlink"
   id="svg265"
   version="1.1"
   preserveAspectRatio="xMinYMin meet"
    viewBox="0 0 400 320"
   height="320"
   width="400">
  <metadata
     id="metadata271">
    <rdf:RDF>
      <cc:Work
         rdf:about="">
        <dc:format>image/svg+xml</dc:format>
        <dc:type
           rdf:resource="http://purl.org/dc/dcmitype/StillImage" />
        <dc:title></dc:title>
      </cc:Work>
    </rdf:RDF>
  </metadata>
  <defs
     id="defs269">
    <linearGradient
       osb:paint="solid"
       id="linearGradient6467">
      <stop
         id="stop6465"
         offset="0"
         style="stop-color:#000000;stop-opacity:1;" />
    </linearGradient>
  </defs>
  <g
     style="stroke:#ffffff;stroke-opacity:1"
     id="g263"
     lucid:page-tab-id="0_0"
     transform="translate(0 0)">
    <path
       style="stroke:#ffffff;stroke-opacity:1"
       id="path2"
       fill="#fff"
       stroke-width="2"
       stroke="#000"
       d="M240 160c0 22.1-17.9 40-40 40s-40-17.9-40-40 17.9-40 40-40 40 17.9 40 40z" />
    <use
       style="stroke:#ffffff;stroke-opacity:1"
       id="use4"
       transform="matrix(1,0,0,1,160,120) translate(11.054999999999998 44.4)"
       xlink:href="#a" />
    <use
       style="stroke:#ffffff;stroke-opacity:1;fill:#ffffff;fill-opacity:1"
       id="use8"
       transform="matrix(1,0,0,1,150,0) translate(24.575 33.6)"
       xlink:href="#b" />
    <path
       style="stroke:#ffffff;stroke-opacity:1"
       id="path10"
       fill="none"
       stroke-width="2"
       stroke="#000"
       d="M200 120V60" />
    <path
       style="stroke:#ffffff;stroke-opacity:1"
       id="path12"
       d="M201 120.06l-1-.06-1 .04V120h2zM204.64 74.27h-9.28L200 60z" />
    <path
       style="stroke:#ffffff;stroke-opacity:1;fill:#ffffff;fill-opacity:1"
       id="path14"
       d="M206 75.27h-12L198.94 60h2.1zm-9.26-2h6.52L200 63.24z" />
    <use
       style="stroke:#ffffff;stroke-opacity:1;fill:#ffffff;fill-opacity:1"
       id="use18"
       transform="matrix(1,0,0,1,150,260) translate(13.074999999999996 33.6)"
       xlink:href="#c" />
    <use
       style="stroke:#ffffff;stroke-opacity:1;fill:#ffffff;fill-opacity:1"
       id="use20"
       transform="matrix(1,0,0,1,150,260) translate(68.975 33.6)"
       xlink:href="#d" />
    <use
       style="stroke:#ffffff;stroke-opacity:1;fill:#ffffff;fill-opacity:1"
       id="use24"
       transform="matrix(1,0,0,1,0,116.99999999999997) translate(14.549999999999997 14.69999999999999)"
       xlink:href="#e" />
    <use
       style="stroke:#ffffff;stroke-opacity:1;fill:#ffffff;fill-opacity:1"
       id="use26"
       transform="matrix(1,0,0,1,0,116.99999999999997) translate(45.5 14.69999999999999)"
       xlink:href="#f" />
    <use
       style="stroke:#ffffff;stroke-opacity:1;fill:#ffffff;fill-opacity:1"
       id="use28"
       transform="matrix(1,0,0,1,0,116.99999999999997) translate(30.5 36.29999999999999)"
       xlink:href="#g" />
    <use
       style="stroke:#ffffff;stroke-opacity:1;fill:#ffffff;fill-opacity:1"
       id="use30"
       transform="matrix(1,0,0,1,0,116.99999999999997) translate(25.525 57.89999999999999)"
       xlink:href="#h" />
    <use
       style="stroke:#ffffff;stroke-opacity:1;fill:#ffffff;fill-opacity:1"
       id="use32"
       transform="matrix(1,0,0,1,0,116.99999999999997) translate(5.549999999999997 79.5)"
       xlink:href="#i" />
    <use
       style="stroke:#ffffff;stroke-opacity:1;fill:#ffffff;fill-opacity:1"
       id="use34"
       transform="matrix(1,0,0,1,0,116.99999999999997) translate(64.5 79.5)"
       xlink:href="#j" />
    <use
       style="stroke:#ffffff;stroke-opacity:1;fill:#ffffff;fill-opacity:1"
       id="use38"
       transform="matrix(1,0,0,1,300,116.79999999999998) translate(32.325 14.69999999999999)"
       xlink:href="#k" />
    <use
       style="stroke:#ffffff;stroke-opacity:1;fill:#ffffff;fill-opacity:1"
       id="use40"
       transform="matrix(1,0,0,1,300,116.79999999999998) translate(13.049999999999997 36.29999999999999)"
       xlink:href="#l" />
    <use
       style="stroke:#ffffff;stroke-opacity:1;fill:#ffffff;fill-opacity:1"
       id="use42"
       transform="matrix(1,0,0,1,300,116.79999999999998) translate(18.049999999999997 57.89999999999999)"
       xlink:href="#m" />
    <use
       style="stroke:#ffffff;stroke-opacity:1;fill-opacity:1;fill:#ffffff"
       id="use44"
       transform="matrix(1,0,0,1,300,116.79999999999998) translate(5.624999999999993 79.5)"
       xlink:href="#n" />
    <path
       style="stroke:#ffffff;stroke-opacity:1"
       id="path46"
       fill="none"
       stroke-width="2"
       stroke="#000"
       d="M240 160h60" />
    <path
       style="stroke:#ffffff;stroke-opacity:1"
       id="path48"
       d="M240 161h-.06l.06-1-.04-1h.04zM300 160l-14.27 4.64v-9.28z" />
    <path
       style="stroke:#ffffff;stroke-opacity:1;fill:#ffffff;fill-opacity:1"
       id="path50"
       d="M300 158.95v2.1L284.73 166v-12zm-13.27 4.3l10.03-3.25-10.03-3.26z" />
    <path
       style="stroke:#ffffff;stroke-opacity:1"
       id="path52"
       fill="none"
       stroke-width="2"
       stroke="#000"
       d="M200 200v60" />
    <path
       style="stroke:#ffffff;stroke-opacity:1"
       id="path54"
       d="M200 200l1-.04v.04h-2v-.06zM200 260l-4.64-14.27h9.28z" />
    <path
       style="stroke:#ffffff;stroke-opacity:1;fill:#ffffff;fill-opacity:1"
       id="path56"
       d="M201.05 260h-2.1L194 244.73h12zm-4.3-13.27l3.25 10.03 3.26-10.03z" />
    <path
       style="stroke:#ffffff;stroke-opacity:1"
       id="path58"
       fill="none"
       stroke-width="2"
       stroke="#000"
       d="M160 160h-60" />
    <path
       style="stroke:#ffffff;stroke-opacity:1"
       id="path60"
       d="M160 160l.04 1H160v-2h.06zM114.27 164.64L100 160l14.27-4.64z" />
    <path
       style="stroke:#ffffff;stroke-opacity:1;fill:#ffffff;fill-opacity:1"
       id="path62"
       d="M115.27 166L100 161.06v-2.1l15.27-4.96zm-12.03-6l10.03 3.26v-6.52z" />
    <defs
       id="defs261">
      <path
         id="o"
         d="M240 0l2-218c-23 76-54 145-80 218h-23L58-218 59 0H30v-248h44l77 211c21-75 51-140 76-211h43V0h-30" />
      <path
         id="p"
         d="M100-194c62-1 85 37 85 99 1 63-27 99-86 99S16-35 15-95c0-66 28-99 85-99zM99-20c44 1 53-31 53-75 0-43-8-75-51-75s-53 32-53 75 10 74 51 75" />
      <path
         id="q"
         d="M85-194c31 0 48 13 60 33l-1-100h32l1 261h-30c-2-10 0-23-3-31C134-8 116 4 85 4 32 4 16-35 15-94c0-66 23-100 70-100zm9 24c-40 0-46 34-46 75 0 40 6 74 45 74 42 0 51-32 51-76 0-42-9-74-50-73" />
      <path
         id="r"
         d="M100-194c63 0 86 42 84 106H49c0 40 14 67 53 68 26 1 43-12 49-29l28 8c-11 28-37 45-77 45C44 4 14-33 15-96c1-61 26-98 85-98zm52 81c6-60-76-77-97-28-3 7-6 17-6 28h103" />
      <path
         id="s"
         d="M24 0v-261h32V0H24" />
      <path
         id="t"
         d="M135-143c-3-34-86-38-87 0 15 53 115 12 119 90S17 21 10-45l28-5c4 36 97 45 98 0-10-56-113-15-118-90-4-57 82-63 122-42 12 7 21 19 24 35" />
      <g
         id="a">
        <use
           id="use70"
           xlink:href="#o"
           transform="matrix(0.05,0,0,0.05,0,0)" />
        <use
           id="use72"
           xlink:href="#p"
           transform="matrix(0.05,0,0,0.05,14.950000000000001,0)" />
        <use
           id="use74"
           xlink:href="#q"
           transform="matrix(0.05,0,0,0.05,24.950000000000003,0)" />
        <use
           id="use76"
           xlink:href="#r"
           transform="matrix(0.05,0,0,0.05,34.95,0)" />
        <use
           id="use78"
           xlink:href="#s"
           transform="matrix(0.05,0,0,0.05,44.95,0)" />
        <use
           id="use80"
           xlink:href="#t"
           transform="matrix(0.05,0,0,0.05,48.900000000000006,0)" />
      </g>
      <path
         id="u"
         d="M63-220v92h138v28H63V0H30v-248h175v28H63" />
      <path
         id="v"
         d="M114-163C36-179 61-72 57 0H25l-1-190h30c1 12-1 29 2 39 6-27 23-49 58-41v29" />
      <path
         id="w"
         d="M210-169c-67 3-38 105-44 169h-31v-121c0-29-5-50-35-48C34-165 62-65 56 0H25l-1-190h30c1 10-1 24 2 32 10-44 99-50 107 0 11-21 27-35 58-36 85-2 47 119 55 194h-31v-121c0-29-5-49-35-48" />
      <g
         id="b">
        <use
           id="use86"
           xlink:href="#u"
           transform="matrix(0.05,0,0,0.05,0,0)" />
        <use
           id="use88"
           xlink:href="#p"
           transform="matrix(0.05,0,0,0.05,10.950000000000001,0)" />
        <use
           id="use90"
           xlink:href="#v"
           transform="matrix(0.05,0,0,0.05,20.950000000000003,0)" />
        <use
           id="use92"
           xlink:href="#w"
           transform="matrix(0.05,0,0,0.05,26.900000000000002,0)" />
        <use
           id="use94"
           xlink:href="#t"
           transform="matrix(0.05,0,0,0.05,41.85,0)" />
      </g>
      <path
         id="x"
         d="M205 0l-28-72H64L36 0H1l101-248h38L239 0h-34zm-38-99l-47-123c-12 45-31 82-46 123h93" />
      <path
         id="y"
         d="M24-231v-30h32v30H24zM24 0v-190h32V0H24" />
      <path
         id="z"
         d="M117-194c89-4 53 116 60 194h-32v-121c0-31-8-49-39-48C34-167 62-67 57 0H25l-1-190h30c1 10-1 24 2 32 11-22 29-35 61-36" />
      <g
         id="c">
        <use
           id="use100"
           xlink:href="#x"
           transform="matrix(0.05,0,0,0.05,0,0)" />
        <use
           id="use102"
           xlink:href="#q"
           transform="matrix(0.05,0,0,0.05,12,0)" />
        <use
           id="use104"
           xlink:href="#w"
           transform="matrix(0.05,0,0,0.05,22,0)" />
        <use
           id="use106"
           xlink:href="#y"
           transform="matrix(0.05,0,0,0.05,36.95,0)" />
        <use
           id="use108"
           xlink:href="#z"
           transform="matrix(0.05,0,0,0.05,40.900000000000006,0)" />
      </g>
      <path
         id="A"
         d="M232-93c-1 65-40 97-104 97C67 4 28-28 28-90v-158h33c8 89-33 224 67 224 102 0 64-133 71-224h33v155" />
      <path
         id="B"
         d="M33 0v-248h34V0H33" />
      <g
         id="d">
        <use
           id="use113"
           xlink:href="#A"
           transform="matrix(0.05,0,0,0.05,0,0)" />
        <use
           id="use115"
           xlink:href="#B"
           transform="matrix(0.05,0,0,0.05,12.950000000000001,0)" />
      </g>
      <path
         id="C"
         d="M126-127c33 6 58 20 58 59 0 88-139 92-164 29-3-8-5-16-6-25l32-3c6 27 21 44 54 44 32 0 52-15 52-46 0-38-36-46-79-43v-28c39 1 72-4 72-42 0-27-17-43-46-43-28 0-47 15-49 41l-32-3c6-42 35-63 81-64 48-1 79 21 79 65 0 36-21 52-52 59" />
      <g
         id="e">
        <use
           id="use119"
           xlink:href="#C"
           transform="matrix(0.05,0,0,0.05,0,0)" />
        <use
           id="use121"
           xlink:href="#v"
           transform="matrix(0.05,0,0,0.05,10,0)" />
        <use
           id="use123"
           xlink:href="#q"
           transform="matrix(0.05,0,0,0.05,15.949999999999998,0)" />
      </g>
      <path
         id="D"
         d="M115-194c55 1 70 41 70 98S169 2 115 4C84 4 66-9 55-30l1 105H24l-1-265h31l2 30c10-21 28-34 59-34zm-8 174c40 0 45-34 45-75s-6-73-45-74c-42 0-51 32-51 76 0 43 10 73 51 73" />
      <path
         id="E"
         d="M141-36C126-15 110 5 73 4 37 3 15-17 15-53c-1-64 63-63 125-63 3-35-9-54-41-54-24 1-41 7-42 31l-33-3c5-37 33-52 76-52 45 0 72 20 72 64v82c-1 20 7 32 28 27v20c-31 9-61-2-59-35zM48-53c0 20 12 33 32 33 41-3 63-29 60-74-43 2-92-5-92 41" />
      <path
         id="F"
         d="M59-47c-2 24 18 29 38 22v24C64 9 27 4 27-40v-127H5v-23h24l9-43h21v43h35v23H59v120" />
      <path
         id="G"
         d="M179-190L93 31C79 59 56 82 12 73V49c39 6 53-20 64-50L1-190h34L92-34l54-156h33" />
      <g
         id="f">
        <use
           id="use130"
           xlink:href="#D"
           transform="matrix(0.05,0,0,0.05,0,0)" />
        <use
           id="use132"
           xlink:href="#E"
           transform="matrix(0.05,0,0,0.05,10,0)" />
        <use
           id="use134"
           xlink:href="#v"
           transform="matrix(0.05,0,0,0.05,20,0)" />
        <use
           id="use136"
           xlink:href="#F"
           transform="matrix(0.05,0,0,0.05,25.950000000000003,0)" />
        <use
           id="use138"
           xlink:href="#G"
           transform="matrix(0.05,0,0,0.05,30.950000000000003,0)" />
      </g>
      <g
         id="g">
        <use
           id="use141"
           xlink:href="#E"
           transform="matrix(0.05,0,0,0.05,0,0)" />
        <use
           id="use143"
           xlink:href="#D"
           transform="matrix(0.05,0,0,0.05,10,0)" />
        <use
           id="use145"
           xlink:href="#D"
           transform="matrix(0.05,0,0,0.05,20,0)" />
        <use
           id="use147"
           xlink:href="#t"
           transform="matrix(0.05,0,0,0.05,30,0)" />
      </g>
      <path
         id="H"
         d="M87 75C49 33 22-17 22-94c0-76 28-126 65-167h31c-38 41-64 92-64 168S80 34 118 75H87" />
      <path
         id="I"
         d="M30-248c87 1 191-15 191 75 0 78-77 80-158 76V0H30v-248zm33 125c57 0 124 11 124-50 0-59-68-47-124-48v98" />
      <path
         id="J"
         d="M68-38c1 34 0 65-14 84H32c9-13 17-26 17-46H33v-38h35" />
      <g
         id="h">
        <use
           id="use153"
           xlink:href="#H"
           transform="matrix(0.05,0,0,0.05,0,0)" />
        <use
           id="use155"
           xlink:href="#x"
           transform="matrix(0.05,0,0,0.05,5.95,0)" />
        <use
           id="use157"
           xlink:href="#I"
           transform="matrix(0.05,0,0,0.05,17.95,0)" />
        <use
           id="use159"
           xlink:href="#B"
           transform="matrix(0.05,0,0,0.05,29.950000000000003,0)" />
        <use
           id="use161"
           xlink:href="#t"
           transform="matrix(0.05,0,0,0.05,34.95,0)" />
        <use
           id="use163"
           xlink:href="#J"
           transform="matrix(0.05,0,0,0.05,43.95,0)" />
      </g>
      <path
         id="K"
         d="M96-169c-40 0-48 33-48 73s9 75 48 75c24 0 41-14 43-38l32 2c-6 37-31 61-74 61-59 0-76-41-82-99-10-93 101-131 147-64 4 7 5 14 7 22l-32 3c-4-21-16-35-41-35" />
      <path
         id="L"
         d="M106-169C34-169 62-67 57 0H25v-261h32l-1 103c12-21 28-36 61-36 89 0 53 116 60 194h-32v-121c2-32-8-49-39-48" />
      <g
         id="i">
        <use
           id="use168"
           xlink:href="#t"
           transform="matrix(0.05,0,0,0.05,0,0)" />
        <use
           id="use170"
           xlink:href="#r"
           transform="matrix(0.05,0,0,0.05,9,0)" />
        <use
           id="use172"
           xlink:href="#E"
           transform="matrix(0.05,0,0,0.05,19,0)" />
        <use
           id="use174"
           xlink:href="#v"
           transform="matrix(0.05,0,0,0.05,29,0)" />
        <use
           id="use176"
           xlink:href="#K"
           transform="matrix(0.05,0,0,0.05,34.95,0)" />
        <use
           id="use178"
           xlink:href="#L"
           transform="matrix(0.05,0,0,0.05,43.95,0)" />
      </g>
      <path
         id="M"
         d="M33-261c38 41 65 92 65 168S71 34 33 75H2C39 34 66-17 66-93S39-220 2-261h31" />
      <g
         id="j">
        <use
           id="use182"
           xlink:href="#r"
           transform="matrix(0.05,0,0,0.05,0,0)" />
        <use
           id="use184"
           xlink:href="#F"
           transform="matrix(0.05,0,0,0.05,10,0)" />
        <use
           id="use186"
           xlink:href="#K"
           transform="matrix(0.05,0,0,0.05,15,0)" />
        <use
           id="use188"
           xlink:href="#M"
           transform="matrix(0.05,0,0,0.05,24,0)" />
      </g>
      <path
         id="N"
         d="M185-189c-5-48-123-54-124 2 14 75 158 14 163 119 3 78-121 87-175 55-17-10-28-26-33-46l33-7c5 56 141 63 141-1 0-78-155-14-162-118-5-82 145-84 179-34 5 7 8 16 11 25" />
      <path
         id="O"
         d="M140-251c81 0 123 46 123 126C263-53 228-8 163 1c7 30 30 48 69 40v23c-55 16-95-15-103-61C56-3 17-48 17-125c0-80 42-126 123-126zm0 227c63 0 89-41 89-101s-29-99-89-99c-61 0-89 39-89 99S79-25 140-24" />
      <path
         id="P"
         d="M30 0v-248h33v221h125V0H30" />
      <g
         id="k">
        <use
           id="use194"
           xlink:href="#N"
           transform="matrix(0.05,0,0,0.05,0,0)" />
        <use
           id="use196"
           xlink:href="#O"
           transform="matrix(0.05,0,0,0.05,12,0)" />
        <use
           id="use198"
           xlink:href="#P"
           transform="matrix(0.05,0,0,0.05,26,0)" />
      </g>
      <g
         id="l">
        <use
           id="use201"
           xlink:href="#H"
           transform="matrix(0.05,0,0,0.05,0,0)" />
        <use
           id="use203"
           xlink:href="#t"
           transform="matrix(0.05,0,0,0.05,5.95,0)" />
        <use
           id="use205"
           xlink:href="#K"
           transform="matrix(0.05,0,0,0.05,14.949999999999998,0)" />
        <use
           id="use207"
           xlink:href="#L"
           transform="matrix(0.05,0,0,0.05,23.95,0)" />
        <use
           id="use209"
           xlink:href="#r"
           transform="matrix(0.05,0,0,0.05,33.95,0)" />
        <use
           id="use211"
           xlink:href="#w"
           transform="matrix(0.05,0,0,0.05,43.95,0)" />
        <use
           id="use213"
           xlink:href="#E"
           transform="matrix(0.05,0,0,0.05,58.900000000000006,0)" />
        <use
           id="use215"
           xlink:href="#J"
           transform="matrix(0.05,0,0,0.05,68.9,0)" />
      </g>
      <path
         id="Q"
         d="M145-31C134-9 116 4 85 4 32 4 16-35 15-94c0-59 17-99 70-100 32-1 48 14 60 33 0-11-1-24 2-32h30l-1 268h-32zM93-21c41 0 51-33 51-76s-8-73-50-73c-40 0-46 35-46 75s5 74 45 74" />
      <path
         id="R"
         d="M84 4C-5 8 30-112 23-190h32v120c0 31 7 50 39 49 72-2 45-101 50-169h31l1 190h-30c-1-10 1-25-2-33-11 22-28 36-60 37" />
      <g
         id="m">
        <use
           id="use220"
           xlink:href="#Q"
           transform="matrix(0.05,0,0,0.05,0,0)" />
        <use
           id="use222"
           xlink:href="#R"
           transform="matrix(0.05,0,0,0.05,10,0)" />
        <use
           id="use224"
           xlink:href="#r"
           transform="matrix(0.05,0,0,0.05,20,0)" />
        <use
           id="use226"
           xlink:href="#v"
           transform="matrix(0.05,0,0,0.05,30,0)" />
        <use
           id="use228"
           xlink:href="#y"
           transform="matrix(0.05,0,0,0.05,35.95,0)" />
        <use
           id="use230"
           xlink:href="#r"
           transform="matrix(0.05,0,0,0.05,39.900000000000006,0)" />
        <use
           id="use232"
           xlink:href="#t"
           transform="matrix(0.05,0,0,0.05,49.900000000000006,0)" />
        <use
           id="use234"
           xlink:href="#J"
           transform="matrix(0.05,0,0,0.05,58.900000000000006,0)" />
      </g>
      <path
         id="S"
         d="M177-190C167-65 218 103 67 71c-23-6-38-20-44-43l32-5c15 47 100 32 89-28v-30C133-14 115 1 83 1 29 1 15-40 15-95c0-56 16-97 71-98 29-1 48 16 59 35 1-10 0-23 2-32h30zM94-22c36 0 50-32 50-73 0-42-14-75-50-75-39 0-46 34-46 75s6 73 46 73" />
      <g
         id="n">
        <use
           id="use238"
           xlink:href="#w"
           transform="matrix(0.05,0,0,0.05,0,0)" />
        <use
           id="use240"
           xlink:href="#y"
           transform="matrix(0.05,0,0,0.05,14.950000000000001,0)" />
        <use
           id="use242"
           xlink:href="#S"
           transform="matrix(0.05,0,0,0.05,18.900000000000002,0)" />
        <use
           id="use244"
           xlink:href="#v"
           transform="matrix(0.05,0,0,0.05,28.900000000000002,0)" />
        <use
           id="use246"
           xlink:href="#E"
           transform="matrix(0.05,0,0,0.05,34.85,0)" />
        <use
           id="use248"
           xlink:href="#F"
           transform="matrix(0.05,0,0,0.05,44.85,0)" />
        <use
           id="use250"
           xlink:href="#y"
           transform="matrix(0.05,0,0,0.05,49.85,0)" />
        <use
           id="use252"
           xlink:href="#p"
           transform="matrix(0.05,0,0,0.05,53.800000000000004,0)" />
        <use
           id="use254"
           xlink:href="#z"
           transform="matrix(0.05,0,0,0.05,63.800000000000004,0)" />
        <use
           id="use256"
           xlink:href="#t"
           transform="matrix(0.05,0,0,0.05,73.80000000000001,0)" />
        <use
           id="use258"
           xlink:href="#M"
           transform="matrix(0.05,0,0,0.05,82.80000000000001,0)" />
      </g>
    </defs>
  </g>
</svg>
